#!OML:ASF E:\pregnant2\Project 1\Capture day 1\Session 1\pregnant2.ASF
:FULLY-SPECIFIED
:DEGREES
3692
root -4.83777 17.3578 20.673 33.6494 -2.29495 1.11191
lowerback -23.3225 1.09493 -1.54204
upperback -16.7235 1.67569 -1.34316
thorax -5.54918 0.915296 -0.29345
lowerneck -16.6942 -3.79675 -5.36974
upperneck 34.3459 -5.69094 4.74214
head 15.0665 -2.48066 1.90814
rclavicle -3.57812e-015 1.45113e-014
rhumerus -14.7208 -9.09272 -5.3069
rradius 25.6596
rwrist 19.103
rhand -5.47611 -18.8537
rfingers 7.12502
rthumb 20.3359 -47.809
lclavicle -3.57812e-015 1.45113e-014
lhumerus -14.2301 21.7217 3.97254
lradius 27.5653
lwrist -7.86252
lhand -9.46228 28.8936
lfingers 7.12502
lthumb 16.5014 58.2119
rfemur -47.4887 13.9997 5.85111
rtibia 30.2688
rfoot -20.4811 -30.6481
rtoes 7.21952
lfemur -43.2025 -6.15865 -15.0291
ltibia 25.0572
lfoot -12.0549 22.6894
ltoes -1.57814
3693
root -4.83763 17.3577 20.6726 33.6533 -2.29895 1.11308
lowerback -23.323 1.09644 -1.55088
upperback -16.7197 1.67919 -1.35175
thorax -5.54456 0.917354 -0.297074
lowerneck -16.7112 -3.78795 -5.34158
upperneck 34.3292 -5.67462 4.71436
head 15.059 -2.47358 1.89399
rclavicle -8.32411e-015 1.35174e-014
rhumerus -14.7433 -9.1137 -5.31618
rradius 25.6487
rwrist 19.1379
rhand -5.45063 -18.8741
rfingers 7.12502
rthumb 20.3604 -47.8268
lclavicle -8.32411e-015 1.35174e-014
lhumerus -14.2343 21.7078 3.99746
lradius 27.5544
lwrist -7.89843
lhand -9.43988 28.8843
lfingers 7.12502
lthumb 16.523 58.2008
rfemur -47.4976 13.999 5.84645
rtibia 30.2714
rfoot -20.4799 -30.6469
rtoes 7.22214
lfemur -43.2084 -6.15351 -15.0336
ltibia 25.0584
lfoot -12.0514 22.6867
ltoes -1.58654
3694
root -4.83745 17.3577 20.6722 33.6573 -2.30269 1.11569
lowerback -23.3256 1.09694 -1.55992
upperback -16.7142 1.68145 -1.36045
thorax -5.5369 0.918765 -0.300833
lowerneck -16.733 -3.77667 -5.31554
upperneck 34.3156 -5.65615 4.69302
head 15.0544 -2.46486 1.88332
rclavicle 7.72775e-015 -7.35503e-015
rhumerus -14.7628 -9.13891 -5.32827
rradius 25.6376
rwrist 19.171
rhand -5.43364 -18.8909
rfingers 7.12502
rthumb 20.3767 -47.8418
lclavicle 7.72775e-015 -7.35503e-015
lhumerus -14.2403 21.6925 4.02012
lradius 27.5437
lwrist -7.92463
lhand -9.41841 28.8803
lfingers 7.12502
lthumb 16.5436 58.1951
rfemur -47.507 13.999 5.8392
rtibia 30.2748
rfoot -20.4786 -30.6479
rtoes 7.22405
lfemur -43.2136 -6.15077 -15.0387
ltibia 25.0582
lfoot -12.0512 22.6845
ltoes -1.58214
3695
root -4.83722 17.3578 20.6718 33.6609 -2.30537 1.11877
lowerback -23.328 1.09634 -1.56807
upperback -16.7087 1.68212 -1.36881
thorax -5.52929 0.919289 -0.305008
lowerneck -16.7558 -3.76333 -5.28992
upperneck 34.3062 -5.63577 4.67468
head 15.052 -2.45494 1.87439
rclavicle 1.90585e-014 7.15625e-015
rhumerus -14.7814 -9.15604 -5.34292
rradius 25.629
rwrist 19.1933
rhand -5.42994 -18.9015
rfingers 7.12502
rthumb 20.3803 -47.8521
lclavicle 1.90585e-014 7.15625e-015
lhumerus -14.2491 21.6725 4.03934
lradius 27.5337
lwrist -7.94069
lhand -9.39633 28.8805
lfingers 7.12502
lthumb 16.5649 58.1935
rfemur -47.5156 13.996 5.83324
rtibia 30.2788
rfoot -20.4758 -30.6477
rtoes 7.22863
lfemur -43.218 -6.15054 -15.043
ltibia 25.057
lfoot -12.0532 22.683
ltoes -1.56962
3696
root -4.83693 17.358 20.6713 33.6645 -2.30695 1.12153
lowerback -23.3308 1.09507 -1.5741
upperback -16.7045 1.68152 -1.37751
thorax -5.52284 0.918947 -0.310985
lowerneck -16.7744 -3.74652 -5.2634
upperneck 34.2996 -5.61316 4.66254
head 15.05 -2.44314 1.86843
rclavicle 1.70706e-014 1.11319e-014
rhumerus -14.7973 -9.17292 -5.36124
rradius 25.6185
rwrist 19.2152
rhand -5.4371 -18.9021
rfingers 7.12502
rthumb 20.3734 -47.8534
lclavicle 1.70706e-014 1.11319e-014
lhumerus -14.2597 21.6404 4.05616
lradius 27.5287
lwrist -7.9292
lhand -9.38344 28.8962
lfingers 7.12502
lthumb 16.5773 58.2082
rfemur -47.5235 13.9911 5.82867
rtibia 30.2824
rfoot -20.4714 -30.6461
rtoes 7.22912
lfemur -43.2228 -6.15171 -15.0462
ltibia 25.0552
lfoot -12.0555 22.683
ltoes -1.55392
3697
root -4.8366 17.3581 20.6709 33.667 -2.30927 1.12362
lowerback -23.3326 1.09401 -1.57877
upperback -16.7014 1.68089 -1.38658
thorax -5.51821 0.91844 -0.318179
lowerneck -16.7908 -3.72902 -5.23849
upperneck 34.298 -5.59093 4.65453
head 15.0502 -2.43117 1.86454
rclavicle 1.69961e-014 2.38542e-015
rhumerus -14.8143 -9.17827 -5.3814
rradius 25.6107
rwrist 19.227
rhand -5.45313 -18.8983
rfingers 7.12502
rthumb 20.358 -47.8512
lclavicle 1.69961e-014 2.38542e-015
lhumerus -14.2682 21.624 4.06946
lradius 27.5208
lwrist -7.92456
lhand -9.36283 28.9058
lfingers 7.12502
lthumb 16.5972 58.2161
rfemur -47.5295 13.9836 5.8269
rtibia 30.2851
rfoot -20.4608 -30.6421
rtoes 7.22188
lfemur -43.2265 -6.15251 -15.0493
ltibia 25.054
lfoot -12.0583 22.6841
ltoes -1.54265
3698
root -4.83629 17.3582 20.6704 33.6675 -2.3118 1.12404
lowerback -23.3298 1.09201 -1.58308
upperback -16.7013 1.6788 -1.39366
thorax -5.51934 0.917304 -0.323851
lowerneck -16.8032 -3.70999 -5.21116
upperneck 34.3022 -5.56674 4.64374
head 15.0518 -2.4185 1.85957
rclavicle 1.63997e-015 4.96962e-015
rhumerus -14.8266 -9.18668 -5.40218
rradius 25.5988
rwrist 19.2459
rhand -5.47367 -18.8821
rfingers 7.12502
rthumb 20.3382 -47.8371
lclavicle 1.63997e-015 4.96962e-015
lhumerus -14.2801 21.608 4.07929
lradius 27.5146
lwrist -7.91551
lhand -9.34099 28.9224
lfingers 7.12502
lthumb 16.6182 58.2309
rfemur -47.5328 13.9792 5.82624
rtibia 30.2866
rfoot -20.4529 -30.6381
rtoes 7.21945
lfemur -43.2282 -6.1519 -15.0514
ltibia 25.0535
lfoot -12.0592 22.6846
ltoes -1.53784
3699
root -4.83604 17.3582 20.6699 33.667 -2.31618 1.12248
lowerback -23.3274 1.091 -1.58681
upperback -16.7016 1.67789 -1.40065
thorax -5.52074 0.91672 -0.329545
lowerneck -16.8154 -3.69145 -5.18439
upperneck 34.3125 -5.54383 4.63382
head 15.0565 -2.4063 1.85493
rclavicle 1.76421e-014 -9.93923e-016
rhumerus -14.8385 -9.19737 -5.42283
rradius 25.5861
rwrist 19.2674
rhand -5.49298 -18.8658
rfingers 7.12502
rthumb 20.3197 -47.8228
lclavicle 1.76421e-014 -9.93923e-016
lhumerus -14.2877 21.6027 4.08983
lradius 27.5078
lwrist -7.90915
lhand -9.32293 28.9426
lfingers 7.12502
lthumb 16.6356 58.2497
rfemur -47.5353 13.9772 5.82687
rtibia 30.2871
rfoot -20.4484 -30.6314
rtoes 7.21972
lfemur -43.2283 -6.14971 -15.0521
ltibia 25.0534
lfoot -12.0601 22.6863
ltoes -1.53721
3700
root -4.83582 17.3582 20.6694 33.6652 -2.32135 1.12065
lowerback -23.3249 1.0904 -1.59127
upperback -16.7007 1.67767 -1.4076
thorax -5.52085 0.916549 -0.334641
lowerneck -16.8314 -3.67405 -5.1618
upperneck 34.3285 -5.52228 4.62643
head 15.065 -2.3948 1.85188
rclavicle 1.22253e-014 6.16232e-015
rhumerus -14.8492 -9.22017 -5.44203
rradius 25.5715
rwrist 19.2973
rhand -5.5053 -18.8491
rfingers 7.12502
rthumb 20.3079 -47.8073
lclavicle 1.22253e-014 6.16232e-015
lhumerus -14.2918 21.6168 4.10168
lradius 27.5002
lwrist -7.91557
lhand -9.32732 28.9825
lfingers 7.12502
lthumb 16.6313 58.2899
rfemur -47.5367 13.9798 5.82573
rtibia 30.2866
rfoot -20.4454 -30.6294
rtoes 7.21494
lfemur -43.2266 -6.14615 -15.0534
ltibia 25.0534
lfoot -12.061 22.6876
ltoes -1.54419
3701
root -4.83568 17.3581 20.6689 33.6615 -2.32891 1.12005
lowerback -23.3217 1.08992 -1.59919
upperback -16.6986 1.6782 -1.41455
thorax -5.51999 0.917068 -0.337646
lowerneck -16.8463 -3.65949 -5.14056
upperneck 34.3459 -5.50327 4.6151
head 15.0741 -2.38513 1.84699
rclavicle -2.35063e-014 5.36719e-015
rhumerus -14.8587 -9.24966 -5.45976
rradius 25.5564
rwrist 19.3318
rhand -5.51522 -18.8375
rfingers 7.12502
rthumb 20.2983 -47.7968
lclavicle -2.35063e-014 5.36719e-015
lhumerus -14.2929 21.6433 4.11532
lradius 27.4927
lwrist -7.93162
lhand -9.3527 29.03
lfingers 7.12502
lthumb 16.6069 58.3395
rfemur -47.5369 13.9853 5.82199
rtibia 30.2858
rfoot -20.4427 -30.6287
rtoes 7.20705
lfemur -43.2227 -6.14174 -15.0569
ltibia 25.0532
lfoot -12.0588 22.6896
ltoes -1.55969
